<svg width="774" height="436" viewBox="0 0 774 436" fill="none" xmlns="http://www.w3.org/2000/svg">
<path d="M6.974 3.13227H53.573V164.485H107.463V202.842H6.974V3.13227ZM239.632 90.6243V115.35C239.632 172.727 221.563 205.378 174.964 205.378C128.365 205.378 110.296 172.727 110.296 115.35V90.6243C110.296 33.2473 128.365 0.596282 174.964 0.596282C221.563 0.596282 239.632 33.2473 239.632 90.6243ZM158.48 68.1173V137.857C158.48 155.609 161.333 167.655 174.964 167.655C188.595 167.655 191.448 155.609 191.448 137.857V68.1173C191.448 50.3653 188.595 38.3193 174.964 38.3193C161.333 38.3193 158.48 50.3653 158.48 68.1173ZM313.696 205.695C264.561 205.695 249.662 176.531 249.662 131.517V3.13227H297.529V135.321C297.529 155.609 299.431 167.338 313.696 167.338C327.961 167.338 329.863 155.609 329.863 135.321V3.13227H377.73V131.517C377.73 176.531 362.831 205.695 313.696 205.695ZM435.848 67.4833V138.491C435.848 156.243 438.067 167.655 451.698 167.655C465.329 167.655 467.548 156.243 467.548 138.491V116.935H512.879V126.128C512.879 172.727 497.98 205.378 452.649 205.378C406.05 205.378 387.981 173.995 387.981 116.618V89.3563C387.981 31.9793 406.05 0.596282 452.649 0.596282C497.98 0.596282 512.879 33.2473 512.879 79.8463V89.0393H467.548V67.4833C467.548 49.7313 465.329 38.3193 451.698 38.3193C438.067 38.3193 435.848 49.7313 435.848 67.4833ZM553.593 3.13227H609.068L652.18 202.842H605.898L599.241 167.338H559.933L552.959 202.842H510.481L553.593 3.13227ZM579.587 66.2153L566.59 132.151H592.901L580.855 66.2153H579.587ZM651.705 135.321H692.598V143.246C692.598 158.145 698.938 167.972 711.301 167.972C722.079 167.972 727.785 161.949 727.785 150.854C727.785 139.442 720.494 135.004 708.448 128.347L691.647 119.154C670.408 107.425 652.022 93.1603 652.022 58.9243C652.022 23.4203 675.163 0.596282 709.399 0.596282C745.854 0.596282 766.776 21.5183 766.776 62.4113V70.3363H725.883V62.0943C725.883 45.9273 720.811 38.0023 709.399 38.0023C699.572 38.0023 694.5 44.9763 694.5 55.7543C694.5 65.8983 700.206 72.2383 709.716 77.3103L728.419 87.4543C754.73 101.719 770.58 115.667 770.58 146.733C770.58 185.407 746.805 205.378 711.301 205.378C675.797 205.378 651.705 185.724 651.705 142.929V135.321Z" fill="#CDC4BA"/>
<path fill-rule="evenodd" clip-rule="evenodd" d="M56.6716 385.99C67.2208 382.067 76.161 374.687 85.2432 367.181C91.9478 361.647 98.7613 356.011 106.186 351.825C127.484 339.811 144.493 339.818 155.758 346.062C169.434 353.656 174.145 369.909 169.514 384.343C162.991 386.959 151.816 388.95 145.202 385.656C137.498 381.807 134.889 373.074 129.709 366.856C120.531 355.851 106.126 364.958 111.175 376.632C114.008 383.201 121.944 386.341 128.382 388.045C140.622 391.279 155.227 393.09 167.556 389.261C149.5 426.771 77.741 427.268 56.6716 385.99ZM108.804 302.19C112.779 300.044 116.102 307.382 111.784 309.251C108.086 310.851 101.866 309.359 98.388 309.502C62.174 310.908 42.1536 351.194 54.9983 382.359C71.3564 376.412 81.6277 363.783 90.9456 349.129C104.142 328.391 121.797 304.557 146.351 299.693C202.541 288.603 219.904 366.103 172.694 387.316C150.409 447.729 43.5136 449.062 22.3422 385.048C7.05293 377.741 -2.3428 361.5 0.508318 344.636C3.08403 329.426 15.6242 313.797 42.8181 304.193C48.996 302.024 55.1516 300.404 61.2851 298.917C33.309 279.232 43.8914 243.847 75.7364 235.127C80.8232 233.733 85.6478 232.842 90.8389 232.842C96.3969 232.842 102.126 233.38 107.724 234.887C121.253 238.525 130.326 249.343 130.724 260.612C131.56 284.143 99.4636 293.11 81.6343 297.975C86.1323 302.097 92.1478 305.31 98.388 305.108C100.87 305.026 105.917 303.606 108.804 302.19ZM174.236 382.094C217.555 358.105 194.974 279.656 112.144 344.351C131.215 335.718 146.78 336.56 157.682 342.6C171.843 350.449 177.707 366.676 174.236 382.094ZM78.4832 294.71C62.3784 275.961 62.7051 235.538 90.8389 235.538C116.657 235.538 119.491 279.71 87.6523 291.975C84.621 292.99 81.561 293.886 78.4832 294.71ZM66.0562 301.87C71.9141 305.048 78.4365 307.066 84.8121 307.644C49.0227 313.046 12.1242 339.427 20.8955 379.75C8.99738 372.603 2.09515 359.085 4.42404 345.287C6.78183 331.371 18.5376 316.975 44.1447 307.93C51.2849 305.421 58.6762 303.621 66.0562 301.87Z" fill="#CDC4BA"/>
<path d="M224.676 233.133H271.275V394.486H325.165V432.843H224.676V233.133ZM335.812 233.133H382.411V432.843H335.812V233.133ZM392.05 365.322H432.943V373.247C432.943 388.146 439.283 397.973 451.646 397.973C462.424 397.973 468.13 391.95 468.13 380.855C468.13 369.443 460.839 365.005 448.793 358.348L431.992 349.155C410.753 337.426 392.367 323.161 392.367 288.925C392.367 253.421 415.508 230.597 449.744 230.597C486.199 230.597 507.121 251.519 507.121 292.412V300.337H466.228V292.095C466.228 275.928 461.156 268.003 449.744 268.003C439.917 268.003 434.845 274.977 434.845 285.755C434.845 295.899 440.551 302.239 450.061 307.311L468.764 317.455C495.075 331.72 510.925 345.668 510.925 376.734C510.925 415.408 487.15 435.379 451.646 435.379C416.142 435.379 392.05 415.725 392.05 372.93V365.322ZM553.977 233.133H609.452L652.564 432.843H606.282L599.625 397.339H560.317L553.343 432.843H510.865L553.977 233.133ZM579.971 296.216L566.974 362.152H593.285L581.239 296.216H579.971ZM652.089 365.322H692.982V373.247C692.982 388.146 699.322 397.973 711.685 397.973C722.463 397.973 728.169 391.95 728.169 380.855C728.169 369.443 720.878 365.005 708.832 358.348L692.031 349.155C670.792 337.426 652.406 323.161 652.406 288.925C652.406 253.421 675.547 230.597 709.783 230.597C746.238 230.597 767.16 251.519 767.16 292.412V300.337H726.267V292.095C726.267 275.928 721.195 268.003 709.783 268.003C699.956 268.003 694.884 274.977 694.884 285.755C694.884 295.899 700.59 302.239 710.1 307.311L728.803 317.455C755.114 331.72 770.964 345.668 770.964 376.734C770.964 415.408 747.189 435.379 711.685 435.379C676.181 435.379 652.089 415.725 652.089 372.93V365.322Z" fill="#CDC4BA"/>
</svg>
