<svg xmlns:xlink="http://www.w3.org/1999/xlink" preserveAspectRatio="xMidYMid meet" data-bbox="8099.471 9036.32 13500 2941.634" viewBox="8099.471 9036.32 13500 2941.634" height="2941.634" width="13500" xmlns="http://www.w3.org/2000/svg" shape-rendering="geometricPrecision" text-rendering="geometricPrecision" image-rendering="optimizeQuality" fill-rule="evenodd" clip-rule="evenodd" data-type="shape" role="presentation" aria-hidden="true">
    <g stroke="#5E97FF" fill="#CCCCCC" stroke-width="0px">
        <path d="M20335.95 10565.62c-513.68 105.37-652.05 239.35-652.05 441.25 0 202.02 169.02 281.13 324.94 281.13 149.18 0 262.58-79.85 329.4-210.12l-.13 118.05c0 37.2 12.01 61.63 52.72 61.63 109.75-1.21 219.57.34 329.33 4.52v-70.26c-74.66-8.85-133.92-26.4-133.92-81.27v-628.3c0-289.98-154.98-338.37-423.77-338.37-166.45 1.55-404.05 85.79-406.14 285.32-1.35 143.1 243.33 141.14 232.67 4.45-4.79-119.2 38.95-215.12 173.47-215.12 189.75 0 173.48 116.64 173.48 256.16v90.93zm-237.06 612.49c-98.82 0-158.09-76.81-158.09-188.73 0-96.66 30.65-276.61 395.15-355.72v311.78c-21.94 72.43-100.98 232.67-237.06 232.67z" fill-rule="nonzero" stroke="#5E97FF" fill="#CCCCCC" stroke-width="0px"></path>
        <path d="M21599.47 10960.89c0-212.97-248.13-313.87-386.39-379.81-125.21-61.46-202.01-111.96-202.01-215.16 0-83.38 59.27-155.89 160.27-155.89 101.01 0 212.97 81.28 267.85 204.2 13.15 26.39 28.59 35.16 57.08 35.16h37.35v-287.67h-72.41c-6.58 28.59-24.11 43.93-52.7 43.93-57.07 0-125.2-61.46-270.14-61.46-188.76 0-331.5 129.59-331.5 296.43 0 193.15 171.23 294.15 324.93 371.05 151.51 76.8 254.7 127.3 254.7 245.84 0 92.24-63.65 160.27-164.65 160.27-116.35 0-283.01-98.33-316.16-218.97-8.49-30.77-33.07-35.16-61.46-35.16h-35.17v298.63h70.23c2.19-30.78 19.73-48.31 50.5-48.31 65.85 0 173.52 74.04 320.64 74.04 164.66 0 349.04-136.07 349.04-327.12z" fill-rule="nonzero" stroke="#5E97FF" fill="#CCCCCC" stroke-width="0px"></path>
        <path d="M15172.4 11288.83c155.16-57.69 286.65-166.23 420.23-276.64 98.62-81.39 198.83-164.28 308.03-225.86 313.26-176.7 563.43-176.6 729.12-84.75 201.14 111.68 270.43 350.74 202.32 563.03-95.93 38.48-260.31 67.76-357.58 19.32-113.32-56.61-151.69-185.06-227.88-276.52-134.99-161.86-346.86-27.91-272.6 143.79 41.67 96.61 158.39 142.8 253.08 167.87 180.04 47.56 394.84 74.19 576.18 17.88-265.57 551.7-1321.01 559.02-1630.9-48.12zm766.77-1232.53c58.47-31.57 107.33 76.35 43.83 103.84-54.39 23.53-145.88 1.6-197.03 3.69-532.64 20.69-827.1 613.22-638.18 1071.6 240.59-87.47 391.67-273.22 528.72-488.75 194.08-305.02 453.77-655.57 814.91-727.12 826.45-163.1 1081.82 976.77 387.45 1288.79-327.77 888.55-1900 908.16-2211.4-33.37-224.87-107.47-363.06-346.34-321.13-594.39 37.88-223.7 222.33-453.57 622.3-594.84 90.86-31.9 181.4-55.73 271.61-77.6-411.47-289.52-255.82-809.97 212.56-938.23 74.81-20.5 145.77-33.6 222.13-33.6 81.74 0 166.01 7.91 248.34 30.07 198.99 53.5 332.44 212.62 338.29 378.36 12.29 346.11-459.78 478-722.02 549.54 66.16 60.64 154.64 107.9 246.42 104.93 36.51-1.21 110.74-22.1 153.2-42.92zm962.38 1175.24c637.14-352.84 305.02-1506.67-913.26-555.13 280.51-126.99 509.44-114.6 669.79-25.76 208.27 115.45 294.53 354.12 243.47 580.89zm-1408.34-1285.26c-236.88-275.77-232.07-870.32 181.73-870.32 379.74 0 421.41 649.69-46.87 830.08-44.59 14.94-89.59 28.11-134.86 40.24zm-182.78 105.31c86.16 46.74 182.09 76.42 275.86 84.92-526.39 79.46-1069.1 467.47-940.09 1060.54-175-105.11-276.52-303.94-242.27-506.88 34.68-204.68 207.59-416.41 584.22-549.44 105.02-36.91 213.73-63.38 322.28-89.14z" stroke="#5E97FF" fill="#CCCCCC" stroke-width="0px"></path>
        <path d="M18548.09 10501.77c0-136.07 13.15-217.35 13.15-287.57 0-43.93-24.11-61.46-59.27-61.46-54.89 0-136.07 74.61-335.89 105.38v68.04c85.57-4.38 133.88 15.34 133.88 92.24v691.97c0 54.88-59.27 72.41-131.68 81.28v70.22c171.23-6.57 342.46-6.57 513.69 0v-70.22c-74.61-8.87-133.88-26.4-133.88-81.28v-608.6z" fill-rule="nonzero" stroke="#5E97FF" fill="#CCCCCC" stroke-width="0px"></path>
        <path d="M17920.97 10165.89c0-136.07 13.15-217.35 13.15-287.58 0-43.92-24.11-61.46-59.27-61.46-54.88 0-136.07 74.61-335.88 105.39v68.03c85.57-4.38 133.88 15.35 133.88 92.24v1113.23c0 41.74 15.34 61.56 52.69 61.56v.09c109.77-1.23 219.54.29 329.31 4.48v-70.22c-74.61-8.87-133.88-26.4-133.88-81.28v-944.48z" fill-rule="nonzero" stroke="#5E97FF" fill="#CCCCCC" stroke-width="0px"></path>
        <path d="M19561.3 10960.87c0-212.97-248.13-313.88-386.39-379.81-125.21-61.46-202.01-111.97-202.01-215.16 0-83.38 59.27-155.89 160.27-155.89 101.01 0 212.97 81.28 267.85 204.2 13.15 26.39 28.59 35.16 57.08 35.16h37.35v-287.67h-72.41c-6.58 28.59-24.11 43.93-52.7 43.93-57.08 0-125.2-61.46-270.14-61.46-188.76 0-331.5 129.59-331.5 296.43 0 193.15 171.23 294.15 324.93 371.05 151.51 76.8 254.7 127.3 254.7 245.84 0 92.24-63.65 160.27-164.65 160.27-116.35 0-283.01-98.34-316.17-218.97-8.48-30.78-33.06-35.16-61.46-35.16h-35.16v298.63h70.23c2.19-30.78 19.72-48.31 50.5-48.31 65.84 0 173.52 74.04 320.64 74.04 164.66 0 349.04-136.07 349.04-327.12z" fill-rule="nonzero" stroke="#5E97FF" fill="#CCCCCC" stroke-width="0px"></path>
        <path d="M18546.08 9948.82c0 72.885-59.085 131.97-131.97 131.97-72.885 0-131.97-59.085-131.97-131.97 0-72.885 59.085-131.97 131.97-131.97 72.885 0 131.97 59.085 131.97 131.97z" stroke="#5E97FF" fill="#CCCCCC" stroke-width="0px"></path>
        <path d="M9186.99 10144.19c-248.12 0-509.4 188.87-509.4 575.25 0 296.86 195.8 566.04 509.4 568.54 313.6-2.5 509.4-271.68 509.4-568.54 0-386.38-261.28-575.25-509.4-575.25zm-182.02 969.83c40.72 66.26 102.15 99.43 184.15 99.43 82.01 0 143.44-33.17 184.16-99.43 43.03-69.85 64.58-202.55 64.58-397.86s-21.55-328.02-64.58-397.86c-40.72-66.26-102.15-99.43-184.16-99.43-82 0-143.43 33.17-184.15 99.43-43.03 69.84-64.58 202.55-64.58 397.86s21.55 328.01 64.58 397.86z" stroke="#5E97FF" fill="#CCCCCC" stroke-width="0px"></path>
        <path d="M12683.06 10565.6c-513.67 105.36-652.05 239.35-652.05 441.24 0 202.03 169.02 281.14 324.95 281.14 149.17 0 262.57-79.85 329.4-210.12l-.14 118.05c0 37.2 12.02 61.63 52.72 61.63 109.76-1.21 219.58.34 329.33 4.52v-70.26c-74.65-8.85-133.92-26.4-133.92-81.27v-628.3c0-289.98-154.98-338.37-423.76-338.37-166.46 1.55-404.06 85.79-406.15 285.32-1.35 143.1 243.34 141.14 232.67 4.45-4.79-119.2 38.95-215.12 173.48-215.12 189.74 0 173.47 116.64 173.47 256.16v90.93zm-237.06 612.49c-98.82 0-158.08-76.81-158.08-188.73 0-96.66 30.64-276.61 395.14-355.72v311.78c-21.93 72.43-100.98 232.67-237.06 232.67z" fill-rule="nonzero" stroke="#5E97FF" fill="#CCCCCC" stroke-width="0px"></path>
        <path d="M10573.16 11051.01v144.93c0 37.26 12.01 61.65 52.69 61.65 109.77-1.24 219.54.29 329.31 4.48v-70.23c-74.61-8.86-133.87-26.39-133.87-81.28 0-303.01 0-606.02-.1-909.03 0-35.16-21.92-50.5-57.08-48.31l-318.35 24.2v74.99l65.94-2.19c43.16-2.19 60.89 19.06 61.46 72.04v597.25c-24.2 50.41-129.59 254.23-285.48 254.23-122.92 0-147.03-118.16-147.03-282.81v-689.4c0-35.16-24.2-50.5-54.88-48.31l-320.55 24.2v74.99l65.85-2.19c43.92-2.19 61.46 19.73 61.46 74.61v574.86c0 304.83 151.5 388.3 327.12 388.3 178.37 0 294.72-150.56 353.51-236.98z" fill-rule="nonzero" stroke="#5E97FF" fill="#CCCCCC" stroke-width="0px"></path>
        <path d="M8481.47 10165.89c0-136.07 13.15-217.35 13.15-287.58 0-43.92-24.1-61.46-59.27-61.46-54.88 0-136.06 74.61-335.88 105.39v68.04c85.57-4.39 133.88 15.34 133.88 92.23v1113.23c0 37.36 11.91 61.66 52.69 61.66 109.77-1.24 219.54.28 329.31 4.47v-70.22c-74.61-8.86-133.88-26.4-133.88-81.28v-944.48z" fill-rule="nonzero" stroke="#5E97FF" fill="#CCCCCC" stroke-width="0px"></path>
        <path d="M13946.58 10960.87c0-212.97-248.13-313.88-386.39-379.81-125.2-61.46-202-111.97-202-215.16 0-83.38 59.26-155.89 160.27-155.89 101 0 212.96 81.28 267.85 204.2 13.15 26.39 28.58 35.16 57.07 35.16h37.36v-287.67h-72.42c-6.58 28.59-24.11 43.93-52.69 43.93-57.08 0-125.21-61.46-270.14-61.46-188.76 0-331.5 129.59-331.5 296.43 0 193.15 171.23 294.15 324.92 371.05 151.51 76.8 254.7 127.3 254.7 245.84 0 92.24-63.65 160.27-164.65 160.27-116.35 0-283-98.34-316.16-218.97-8.48-30.78-33.07-35.16-61.46-35.16h-35.16v298.63h70.22c2.2-30.78 19.73-48.31 50.51-48.31 65.84 0 173.51 74.04 320.64 74.04 164.65 0 349.03-136.07 349.03-327.12z" fill-rule="nonzero" stroke="#5E97FF" fill="#CCCCCC" stroke-width="0px"></path>
        <path d="M11526.83 10143.82c-248.12 0-509.41 188.84-509.41 575.22 0 296.86 195.81 566.04 509.41 568.54 169.4 6.2 308.86-57.86 386.43-212.97 9.05-17.62 13.9-49.91 8.43-66.11-13.5-40.5-63.93-53.57-92.69-23.54-10.1 11.25-14.68 26.58-16.37 44.2-14.44 199.43-362.78 255.3-467.83 84.46-43.02-69.85-64.57-202.55-64.57-397.86s21.55-328.01 64.57-397.86c40.38-65.68 101.08-98.82 182.03-99.41 134.54 0 178.27 95.88 173.47 215.15-10.57 136.65 234.14 138.51 232.67-4.49-2.08-199.5-239.64-283.74-406.14-285.33z" stroke="#5E97FF" fill="#CCCCCC" stroke-width="0px"></path>
    </g>
</svg>