<svg width="30" height="31" viewBox="0 0 30 31" fill="none" xmlns="http://www.w3.org/2000/svg">
<path fill-rule="evenodd" clip-rule="evenodd" d="M8.50074 23.4726C10.0831 22.8843 11.4241 21.7773 12.7865 20.6512C13.7922 19.8212 14.8142 18.9759 15.9279 18.3479C19.1226 16.5458 21.674 16.5468 23.3637 17.4835C25.4151 18.6225 26.1217 21.0606 25.4271 23.2256C24.4487 23.618 22.7724 23.9166 21.7803 23.4226C20.6246 22.8453 20.2333 21.5352 19.4563 20.6026C18.0796 18.9519 15.9189 20.3179 16.6762 22.0689C17.1013 23.0543 18.2916 23.5253 19.2573 23.781C21.0933 24.266 23.284 24.5376 25.1334 23.9633C22.425 29.5898 11.6611 29.6644 8.50074 23.4726ZM16.3206 10.9027C16.9169 10.5807 17.4153 11.6814 16.7676 11.9617C16.2129 12.2017 15.2799 11.9781 14.7582 11.9994C9.3261 12.2104 6.32304 18.2532 8.24974 22.928C10.7035 22.0359 12.2441 20.1415 13.6418 17.9435C15.6212 14.8328 18.2696 11.2577 21.9527 10.528C30.3812 8.86465 32.9855 20.4896 25.9041 23.6716C22.5614 32.7335 6.52704 32.9335 3.35132 23.3313C1.05794 22.2353 -0.35142 19.7992 0.0762477 17.2695C0.462604 14.9881 2.34363 12.6437 6.42271 11.203C7.3494 10.8777 8.27274 10.6347 9.19276 10.4117C4.99635 7.45895 6.58371 2.15118 11.3605 0.843156C12.1235 0.634155 12.8472 0.500488 13.6258 0.500488C14.4595 0.500488 15.3189 0.581155 16.1586 0.807156C18.1879 1.35285 19.5489 2.97554 19.6086 4.6659C19.7339 8.19564 14.9195 9.54067 12.2451 10.2704C12.9198 10.8887 13.8222 11.3707 14.7582 11.3404C15.1305 11.328 15.8876 11.115 16.3206 10.9027ZM26.1354 22.8883C32.6332 19.2899 29.2461 7.52262 16.8216 17.2268C19.6823 15.9318 22.017 16.0581 23.6524 16.9642C25.7764 18.1415 26.6561 20.5756 26.1354 22.8883ZM11.7725 9.78067C9.35676 6.96829 9.40576 0.904823 13.6258 0.904823C17.4986 0.904823 17.9236 7.53062 13.1478 9.37034C12.6932 9.52267 12.2341 9.657 11.7725 9.78067ZM9.90843 10.8547C10.7871 11.3314 11.7655 11.6341 12.7218 11.7207C7.3534 12.5311 1.81863 16.4881 3.13432 22.5366C1.34961 21.4646 0.314272 19.4369 0.663606 17.3672C1.01727 15.2798 2.78063 13.1204 6.62171 11.7637C7.69274 11.3874 8.80143 11.1174 9.90843 10.8547Z" fill="#CDC4BA"/>
</svg>
